{"title":"Alexander And The Terrible Horrible No Good Very Bad Day 2014 72","uid":11712990,"size":2341308010,"categoryP":"video","categoryS":"hd___movies","magnet":"?xt=urn:btih:27aee32a04de9ee6d7ca859bf20e5d2b0f661de8&amp;dn=Alexander+And+The+Terrible+Horrible+No+Good+Very+Bad+Day+2014+72&amp;tr=udp%3A%2F%2Ftracker.openbittorrent.com%3A80&amp;tr=udp%3A%2F%2Fopen.demonii.com%3A1337&amp;tr=udp%3A%2F%2Ftracker.coppersurfer.tk%3A6969&amp;tr=udp%3A%2F%2Fexodus.desync.com%3A6969","seeders":5,"leechers":2,"uploader":"WW7477","files":10,"time":1424406497,"description":"Complete name                            : C:UsersWorldwide7477VideosMy TorrentsAlexander And The Terrible Horrible No Good Very Bad Day 2014 720p BluRay DTS x264 Worldwide7477Alexander And The Terrible Horrible No Good Very Bad Day 2014 720p BluRay DTS x264 Worldwide7477.mkv\nFormat                                   : Matroska\nFormat version                           : Version 4 / Version 2\nFile size                                : 2.13 GiB\nDuration                                 : 1h 21mn\nOverall bit rate mode                    : Variable\nOverall bit rate                         : 3 750 Kbps\nMovie name                               : Alexander And The Terrible Horrible No Good Very Bad Day 2014 720p BluRay DTS x264 Worldwide7477\nEncoded date                             : UTC 2015-02-18 17:42:46\n\nVideo\nID                                       : 1\nFormat                                   : AVC\nFormat/Info                              : Advanced Video Codec\nFormat profile                           : &lt;a class=&quot;__cf_email__&quot; href=&quot;/cdn-cgi/l/email-protection&quot; data-cfemail=&quot;145c7d737c5458203a25&quot;&gt;[email&amp;#160;protected]&lt;/a&gt;&lt;script cf-hash='f9e31' type=&quot;text/javascript&quot;&gt;\n/* &lt;![CDATA[ */!function(){try{var t=&quot;currentScript&quot;in document?document.currentScript:function(){for(var t=document.getElementsByTagName(&quot;script&quot;),e=t.length;e--;)if(t[e].getAttribute(&quot;cf-hash&quot;))return t[e]}();if(t&amp;&amp;t.previousSibling){var e,r,n,i,c=t.previousSibling,a=c.getAttribute(&quot;data-cfemail&quot;);if(a){for(e=&quot;&quot;,r=parseInt(a.substr(0,2),16),n=2;a.length-n;n+=2)i=parseInt(a.substr(n,2),16)^r,e+=String.fromCharCode(i);e=document.createTextNode(e),c.parentNode.replaceChild(e,c)}}}catch(u){}}();/* ]]&gt; */&lt;/script&gt;\nFormat settings, CABAC                   : Yes\nFormat settings, ReFrames                : 3 frames\nCodec ID                                 : V_MPEG4/ISO/AVC\nDuration                                 : 1h 21mn\nBit rate mode                            : Variable\nBit rate                                 : 2 999 Kbps\nMaximum bit rate                         : 14.0 Mbps\nWidth                                    : 1 280 pixels\nHeight                                   : 536 pixels\nDisplay aspect ratio                     : 2.40:1\nFrame rate mode                          : Constant\nFrame rate                               : 23.976 fps\nColor space                              : YUV\nChroma subsampling                       : 4:2:0\nBit depth                                : 8 bits\nScan type                                : Progressive\nBits/(Pixel*Frame)                       : 0.182\nStream size                              : 1.66 GiB (78%)\nTitle                                    : Alexander And The Terrible Horrible No Good Very Bad Day 2014 720p BluRay DTS x264 Worldwide7477\n\nLanguage                                 : English\nDefault                                  : Yes\nForced                                   : No\n\nAudio\nID                                       : 2\nFormat                                   : DTS\nFormat/Info                              : Digital Theater Systems\nMode                                     : 16\nFormat settings, Endianness              : Big\nCodec ID                                 : A_DTS\nDuration                                 : 1h 21mn\nBit rate mode                            : Constant\nBit rate                                 : 755 Kbps\nChannel count                            : 6 channels\nChannel positions                        : Front: L C R, Side: L R, LFE\nSampling rate                            : 48.0 KHz\nBit depth                                : 24 bits\nCompression mode                         : Lossy\nStream size                              : 438 MiB (20%)\nTitle                                    : Worldwide7477 (DTS)\nLanguage                                 : English\nDefault                                  : Yes\nForced                                   : No\n\nText #1\nID                                       : 3\nFormat                                   : UTF-8\nCodec ID                                 : S_TEXT/UTF8\nCodec ID/Info                            : UTF-8 Plain Text\nTitle                                    : Worldwide7477 (Eng)\nLanguage                                 : English\nDefault                                  : Yes\nForced                                   : No\n\nText #2\nID                                       : 4\nFormat                                   : UTF-8\nCodec ID                                 : S_TEXT/UTF8\nCodec ID/Info                            : UTF-8 Plain Text\nTitle                                    : Worldwide7477 (Eng-SDH)\nLanguage                                 : English\nDefault                                  : No\nForced                                   : No\n\nText #3\nID                                       : 5\nFormat                                   : UTF-8\nCodec ID                                 : S_TEXT/UTF8\nCodec ID/Info                            : UTF-8 Plain Text\nTitle                                    : Worldwide7477 (Fre)\nLanguage                                 : French\nDefault                                  : No\nForced                                   : No\n\nText #4\nID                                       : 6\nFormat                                   : UTF-8\nCodec ID                                 : S_TEXT/UTF8\nCodec ID/Info                            : UTF-8 Plain Text\nTitle                                    : Worldwide7477 (Spa)\nLanguage                                 : Spanish\nDefault                                  : No\nForced                                   : No\n\nMenu\n00:00:00.000                             : :Chapter 1\n00:04:00.000                             : :Chapter 2\n00:08:00.000                             : :Chapter 3\n00:12:00.000                             : :Chapter 4\n00:16:00.000                             : :Chapter 5\n00:20:00.000                             : :Chapter 6\n00:24:00.000                             : :Chapter 7\n00:28:00.000                             : :Chapter 8\n00:32:00.000                             : :Chapter 9\n00:36:00.000                             : :Chapter 10\n00:40:00.000                             : :Chapter 11\n00:44:00.000                             : :Chapter 12\n00:48:00.000                             : :Chapter 13\n00:52:00.000                             : :Chapter 14\n00:56:00.000                             : :Chapter 15\n01:00:00.000                             : :Chapter 16\n01:04:00.000                             : :Chapter 17\n01:08:00.000                             : :Chapter 18\n01:12:00.000                             : :Chapter 19\n01:16:00.000                             : :Chapter 20\n01:20:00.000                             : :Chapter 21","torrent":{"xt":"urn:btih:27aee32a04de9ee6d7ca859bf20e5d2b0f661de8","amp;dn":"Alexander+And+The+Terrible+Horrible+No+Good+Very+Bad+Day+2014+72","amp;tr":["udp%3A%2F%2Ftracker.openbittorrent.com%3A80","udp%3A%2F%2Fopen.demonii.com%3A1337","udp%3A%2F%2Ftracker.coppersurfer.tk%3A6969","udp%3A%2F%2Fexodus.desync.com%3A6969"],"infoHash":"27aee32a04de9ee6d7ca859bf20e5d2b0f661de8","infoHashBuffer":{"type":"Buffer","data":[39,174,227,42,4,222,158,230,215,202,133,155,242,14,93,43,15,102,29,232]},"announce":[],"urlList":[]}}